# xmcd
#
# Track frame offsets: 
#        150
#        16335
#        31801
#        49432
#        62493
#        77805
#        95356
#        109771
#        128194
#        144598
#        158162
#        175570
#
# Disc length: 2567 seconds
#
# Revision: 1
# Processed by: cddbd v1.5PL3 Copyright (c) Steve Scherf et al.
# Submitted via: ExactAudioCopy v0.95a4
#
DISCID=940a050c
DTITLE=Gimmel - Kaksi kertaa enemm‰n
DYEAR=2003
DGENRE=Pop
TTITLE0=Syd‰n pliis s‰rkek‰‰
TTITLE1=Blaah Blaah Blaah
TTITLE2=Harmaata lunta
TTITLE3=Oon hullu kai
TTITLE4=2X
TTITLE5=Salaa "Susanna"
TTITLE6=Soittolista "Ushma"
TTITLE7=Friikki
TTITLE8=Mustavalkoisuutta "Jenni"
TTITLE9=Huuto
TTITLE10=Paha p‰iv‰
TTITLE11=Ikuisesti j‰‰hyv‰iset
EXTD=
EXTT0=
EXTT1=
EXTT2=
EXTT3=
EXTT4=
EXTT5=
EXTT6=
EXTT7=
EXTT8=
EXTT9=
EXTT10=
EXTT11=
PLAYORDER=
